<svg width="23" height="18" xmlns="http://www.w3.org/2000/svg"><path d="M7.233 18c8.68 0 13.426-6.925 13.426-12.929 0-.197-.004-.392-.013-.587A9.408 9.408 0 0023 2.13a9.699 9.699 0 01-2.71.715A4.595 4.595 0 0022.365.333a9.693 9.693 0 01-2.996 1.103A4.8 4.8 0 0015.924 0c-2.606 0-4.72 2.035-4.72 4.544 0 .357.042.703.123 1.036-3.922-.19-7.4-1.998-9.726-4.748a4.4 4.4 0 00-.64 2.284c0 1.577.834 2.968 2.1 3.782A4.816 4.816 0 01.925 6.33v.058c0 2.2 1.626 4.038 3.785 4.455a4.917 4.917 0 01-2.13.078c.6 1.805 2.342 3.119 4.407 3.156a9.702 9.702 0 01-5.86 1.945C.745 16.022.369 16 0 15.959A13.733 13.733 0 007.233 18" fill="#2B3648" fill-rule="evenodd"/></svg>