<svg width="100" height="91" xmlns="http://www.w3.org/2000/svg"><path d="M98.822 19.265c0-.37.01-.658.022-.964.011-.294.023-.599.023-.966 0-.405-.012-.738-.024-1.06-.01-.295-.031-1.058-.031-1.058-.034-.237-.034-.443-.034-.727 0-.356-.013-.652-.024-.938a63.32 63.32 0 01-.021-.891c0-.345.04-.649.08-.97.049-.367.098-.747.098-1.215 0-.349-.012-.642-.023-.927-.011-.277-.021-.54-.021-.851 0-.573.01-1.058.021-1.527.012-.48.023-.976.023-1.572V3.875l.016-.142A8.42 8.42 0 0099 2.703c0-.956-.632-1.95-1.503-2.363l-.105-.043C96.984.164 96.317.185 96.25.17a7.684 7.684 0 00-.184-.045l-.195-.022c-.298 0-.55.03-.773.056-.29.035-.513.061-.824.024-.117-.014-.249-.03-.407-.03-.3 0-.464 0-.706-.039 0 0-.321-.02-.428-.032-.136-.014-.29-.03-.47-.03-.757 0-1.496.51-1.837.877-.28.267-.4.537-.529.821-.037.083-.08.177-.133.287a9.8 9.8 0 01-.286.535c-.105.187-.214.38-.34.64-.165.344-.283.651-.397.949-.086.223-.174.453-.284.703 0 0-.394.882-.636 1.35 0 0-.488.996-.633 1.335l-.15.35c-.123.254-.263.465-.423.709-.128.193-.273.412-.418.67a5.65 5.65 0 00-.405.759c-.056.12-.112.242-.185.377-.18.297-.347.56-.509.814a22.77 22.77 0 00-1.014 1.718c-.116.224-.435.837-.675 1.1-.354-.32-.962-1.27-1.394-1.944 0 0-.374-.544-.54-.797-.164-.25-.334-.507-.536-.79a21.178 21.178 0 00-.448-.69 54.41 54.41 0 01-.735-1.184c-.094-.154-.5-.821-.586-.945-.116-.167-.401-.63-.401-.63-.134-.178-.202-.343-.305-.594l-.12-.286-.038-.085-.053-.076a12 12 0 01-.404-.647c-.081-.138-.594-1.026-.643-1.093a2.64 2.64 0 01-.237-.362c-.166-.299-.31-.568-.447-.825a25.495 25.495 0 00-1.004-1.758 3.38 3.38 0 00-.801-.904L74.68.41C74.284.138 73.756 0 73.113 0c-.198 0-.362.015-.506.03a3.476 3.476 0 01-.34.02l-.125.01c-.294.042-.467.042-.811.042h-1.87c-.956 0-1.743.868-1.828.966-.41.468-.633.891-.633 1.788 0 .417 0 .748.047 1.239a165.3 165.3 0 01.176 4.654c0 .573 0 .952.047 1.549.025.311.018.545.008.84a12.098 12.098 0 00.012 1.205c.011.212.022.412.022.623 0 .176-.01.331-.02.49-.011.194-.025.414-.025.678v1.285l-.026.344c-.034.427-.063.796-.063 1.267 0 .187.006.354.011.516.01.278.017.497-.007.772l-.004.083c0 .288-.02.54-.04.806-.024.307-.049.624-.049 1.023 0 .367.024.682.047.987.022.282.042.548.042.842 0 .365-.01.665-.021.983-.012.32-.023.652-.023 1.05 0 .522.023 1.046.045 1.552.021.499.043 1.014.044 1.526-.014.33-.032.664-.05 1.001a41.658 41.658 0 00-.084 2.321v5.628c0 .226-.004.393-.007.523-.017.643.022.783.3 1.462l.059.142.036.042c.06.123.156.318.3.495.36.478.988.744 1.782.751.432.03.853-.028 1.226-.08a5.54 5.54 0 01.724-.072c.45 0 .778.03 1.193.066l.332.028.093.019c.22.044.447.09.788.09l.142-.011a3.42 3.42 0 00.712-.2c.69-.246 1.472-.969 1.472-2.238 0-.19-.013-.36-.025-.508-.01-.115-.02-.23-.02-.356V35.16c.032-.449.02-1.262.009-1.981-.005-.28-.008-.53-.008-.705l-.002-.055c-.043-.735-.043-1.277-.043-2.028a8.31 8.31 0 00-.024-.598 6.41 6.41 0 01-.02-.469c0-.355.045-.663.098-1.019.058-.391.124-.835.124-1.369 0-.278-.012-.51-.023-.735-.011-.21-.021-.407-.021-.636V22.11c0-.166 0-.666.136-1.193.027-.074.053-.143.078-.205a.082.082 0 01.047-.047c.047-.018.1-.035.147-.047a.082.082 0 01.072.017c.243.198.618.796.788 1.068l.186.294c.067.115.123.213.17.298.142.252.255.452.432.66.196.258.353.426.505.588.06.063.121.129.189.204l.056.09c.073.119.156.253.299.417.156.178.261.329.395.52l.077.112.062.079c.178.203.281.361.432.619l.014.024c.127.202.238.356.344.505a5.632 5.632 0 01.52.838c.237.456.444.787 1.094 1.169.185.14.547.402 1.116.402.196 0 .88-.028 1.454-.392l.191-.161.122-.165c.023-.028.052-.062.081-.104.16-.157.25-.313.318-.434l.011-.02a13.41 13.41 0 00.763-1.174c.065-.114.12-.213.197-.322a3.96 3.96 0 01.294-.326c.088-.09.174-.18.247-.277.355-.363.821-.948 1.038-1.305.105-.151.204-.3.3-.446.349-.525.606-.928 1.036-1.188l.04-.026c.037.008.06.472.099.625.018.074.015.146.015.175 0 .043.013.084.004.152-.013.106-.03.237-.03.398 0 .264.014.484.025.677.01.16.02.315.02.492 0 .335-.032.6-.068.905-.023.19-.046.382-.062.595l-.003.075c0 .346.024.625.048.895.02.24.04.467.04.73 0 .326-.02.593-.042.876-.023.291-.046.592-.046.953l.004 1.194c.01 1.914.03 6.395-.003 6.964l-.001.056c0 .37-.02.7-.042 1.049-.023.378-.048.769-.048 1.237 0 .353.042.646.08.906.028.207.054.386.054.567 0 1.105.736 2.297 1.926 2.297.159 0 .29-.016.407-.03.097-.011.174-.02.261-.02l.077-.004a7.37 7.37 0 01.94-.009c.186.006.378.012.586.012.334 0 .626.012.936.024.328.013.667.027 1.069.027.746 0 1.826-.11 2.57-1.054l.047-.064c.217-.33.467-.803.467-1.534v-.458c0-.16.01-.332.02-.504.012-.2.024-.408.024-.614 0-.545-.06-1.003-.12-1.445-.053-.4-.103-.776-.103-1.196 0-.97.176-7.694.221-8.71.033-.385.022-.687.011-.979-.004-.13-.01-.262-.01-.404 0-.536.022-.982.044-1.454.023-.473.046-.962.046-1.543 0-.918-.046-1.694-.09-2.445a37.07 37.07 0 01-.088-2.33M32 2.856c0-.897-.222-1.32-.632-1.787-.087-.099-.874-.967-1.829-.967h-1.87c-.344 0-.517 0-.81-.042l-.125-.01c-.115 0-.22-.01-.34-.02a5.096 5.096 0 00-.507-.03c-.643 0-1.171.138-1.568.41l-.037.025a3.37 3.37 0 00-.799.9 25.552 25.552 0 00-1.006 1.763c-.137.256-.281.525-.457.843a2.585 2.585 0 01-.227.343c-.049.066-.1.137-.156.216l-.04.064c-.098.166-.171.305-.245.444-.06.115-.12.23-.202.369l-.02.037a5.39 5.39 0 01-.384.61l-.053.076-.037.085c-.044.1-.083.195-.12.286-.104.25-.172.416-.306.595l-.072.111a5.231 5.231 0 01-.329.518c-.085.123-.172.25-.267.4l-.028.048c-.104.19-.197.343-.29.497-.104.17-.207.341-.322.549-.144.234-.279.435-.413.636a21.32 21.32 0 00-.448.688 23.09 23.09 0 00-.537.792c-.166.253-.324.492-.513.756l-.041.062c-.42.654-1.026 1.602-1.38 1.921-.24-.262-.559-.875-.676-1.1a9.04 9.04 0 00-.177-.33c-.29-.529-.555-.945-.836-1.387-.162-.254-.33-.517-.509-.814a6.444 6.444 0 01-.185-.377c-.102-.22-.217-.47-.405-.76-.145-.258-.29-.476-.418-.67a5.92 5.92 0 01-.423-.709 33.43 33.43 0 01-.15-.35c-.145-.338-.281-.658-.491-1.057l-.142-.276c-.241-.469-.416-.808-.625-1.325l-.01-.026c-.11-.25-.199-.48-.284-.703a12.51 12.51 0 00-.4-.957 11.121 11.121 0 00-.338-.631 9.511 9.511 0 01-.286-.536c-.054-.11-.096-.205-.133-.287-.128-.285-.25-.554-.529-.821C8.233.56 7.493.05 6.736.05c-.18 0-.334.016-.47.03-.107.011-.2.02-.287.02l-.141.012c-.242.04-.406.04-.705.04-.16 0-.291.015-.408.03-.31.036-.535.01-.824-.025-.223-.026-.475-.056-.773-.056H3.03l-.096.022c-.068.015-.129.03-.185.045A2.264 2.264 0 012.513.2c-.174-.012-.496-.036-.904.097L1.502.34C.632.753 0 1.748 0 2.703c0 .393.036.703.073 1.03L.09 5.6c0 .596.012 1.092.023 1.572.01.469.021.954.021 1.527 0 .311-.01.574-.021.851-.011.285-.023.578-.023.927 0 .468.05.848.097 1.215.042.321.081.625.081.97v.101c0 .285-.01.535-.02.79-.012.286-.024.581-.024.938 0 .284-.045.863-.045.863 0 .337-.01.627-.021.922-.012.322-.024.655-.024 1.06 0 .367.012.672.023.966.011.306.022.594.022.964 0 .86-.042 1.575-.087 2.331-.045.75-.091 1.527-.091 2.445 0 .58.023 1.07.046 1.543.022.472.043.918.043 1.454 0 .142-.005.274-.01.404-.01.292-.02.594.012.98.046 1.026.22 6.524.22 7.44 0 .447-.054 1.178-.108 1.884-.058.775-.114 1.508-.114 2.026 0 .206.012.414.024.615.01.171.02.343.02.503v.458c0 .731.25 1.204.467 1.534l.046.064C1.392 43.89 2.471 44 3.217 44c.402 0 .741-.014 1.069-.027.31-.012.602-.024.936-.024.208 0 .4-.006.586-.012.329-.01.612-.02.94.01l.077.002c.087 0 .164.01.26.021.117.014.25.03.408.03 1.19 0 1.926-1.192 1.926-2.297 0-.18.026-.36.055-.567a6.12 6.12 0 00.079-.906c0-.454-.024-1.168-.046-1.859a64.818 64.818 0 01-.043-1.696s-.015-4.12-.006-5.804l.006-1.14c0-.362-.024-.663-.047-.954-.022-.283-.042-.55-.042-.876 0-.263.02-.49.04-.73.024-.27.006-1.376-.017-1.565a7.1 7.1 0 01-.068-.905c0-.177.01-.332.02-.492.011-.193.025-.413.025-.677 0-.16-.008-.229-.02-.334-.01-.07 0-.138 0-.18 0-.03-.002-.123.017-.197.025-.102.063-.353.09-.5a.084.084 0 01.132-.054c.37.262.627.65.944 1.129.097.145.196.295.301.446.217.357.683.942 1.038 1.305.073.097.16.186.247.277.09.093.239.247.294.326.077.11.132.208.196.322.062.108.12.211.178.298.213.34.358.564.586.877l.368.553c.08.12.182.22.302.296l.053.034c.574.364 1.258.392 1.454.392.569 0 .931-.261 1.116-.402.65-.382.857-.713 1.094-1.17.066-.128.136-.26.24-.428.1-.159.19-.284.28-.408a9.07 9.07 0 00.344-.506l.014-.024c.151-.258.254-.416.432-.62l.14-.19c.133-.191.238-.342.395-.52.142-.164.225-.298.299-.417l.055-.09c.068-.075.13-.14.19-.204.151-.162.308-.33.504-.588.177-.208.29-.408.431-.66.048-.085.103-.183.17-.298l.187-.294c.17-.272.545-.87.788-1.068a.082.082 0 01.072-.017c.048.012.1.029.148.047a.082.082 0 01.046.046c.025.062.051.132.078.206.136.527.136 1.027.136 1.193v3.455c0 .229-.01.427-.02.636a13.1 13.1 0 00-.024.735c0 .534.066.978.124 1.369.053.356.099.664.099 1.02 0 .17-.01.308-.02.468-.012.17-.025.362-.025.598 0 3.467-.027 4.445-.043 4.72l-.002.054c0 .204-.005.383-.01.554-.008.272-.015.532-.003.828l-.008.261c-.012.355-.023.709-.023.867 0 1.27.782 1.993 1.472 2.237.304.13.644.19.712.201l.143.012c.34 0 .567-.046.787-.09l.425-.048c.415-.037.743-.066 1.193-.066.215 0 .462.035.724.072.373.052.794.11 1.226.08.794-.007 1.423-.273 1.781-.75.145-.178.241-.373.301-.496l.036-.041.059-.143c.325-.794.313-1.462.3-2.235a23.666 23.666 0 01-.007-.557v-5.359c0-.787-.042-1.567-.083-2.32a81.404 81.404 0 01-.05-1.002c0-.512.022-1.027.044-1.526.021-.506.044-1.03.044-1.553 0-.397-.011-.729-.023-1.049a26.463 26.463 0 01-.021-.983c0-.294.02-.56.042-.842.023-.305.047-.62.047-.987 0-.399-.025-.716-.049-1.023a9.92 9.92 0 01-.04-.806l-.004-.083a5.9 5.9 0 01-.007-.772c.005-.162.01-.33.01-.516 0-.471-.028-.84-.062-1.267l-.026-.344v-1.285c0-.264-.014-.484-.025-.677-.01-.16-.02-.315-.02-.491 0-.21.01-.41.022-.622a11.9 11.9 0 00.023-.649c0-.205-.006-.385-.011-.557a6.887 6.887 0 01.008-.84c.047-.597.047-.976.047-1.524.041-1.602.083-2.883.176-4.68.047-.49.047-.821.047-1.238m15.956 20.402c-.281 0-1.071.164-1.41.383-.62.384-.789 1.152-.789 2.25 0 .822.056 2.358.056 2.413.226 1.536 1.185 1.81 1.862 1.975 1.127.274 4.82.274 5.102.274.789 0 1.579-.055 2.368-.055.564 0 1.128.055 1.636.055.507 0 .846-.055 1.353-.055.508 0 .903 0 1.41-.055.565 0 .903-.11 1.467-.11.677 0 1.523.33 1.692.44.17.11.338.273.395.383.45.549.62 1.646.62 2.14 0 1.426.113 1.37.226 2.303.056.44.056 1.043.056 1.481 0 .769-.169 1.81-1.918 1.81-.733 0-1.24-.109-2.03-.109-.451 0-.79.055-1.297.11-.451 0-.79.054-1.241.054-1.015 0-1.692-.11-2.65-.11-1.41 0-4.708.055-6.062.11-.564 0-.958.055-1.466.055-.677 0-1.184-.055-1.805-.11h-1.917c-.452 0-.79-.054-1.241-.054-.733 0-1.241.054-1.974.054-.282 0-.451-.054-.677 0h-1.015c-.79 0-1.41-.219-1.748-.603a1.932 1.932 0 01-.339-.548c-.225-.33-.451-.713-.451-1.427 0-.438.057-.932.113-1.37 0-.714-.113-1.372-.17-2.03v-.11c0-.494.057-.823 0-1.317 0-.383-.056-.658-.056-1.042v-4.278c0-.494.113-.878.113-1.372 0-.768-.113-1.316-.113-2.029v-.549c0-1.042-.056-1.81-.056-2.852v-2.25c0-.493 0-.877.056-1.37.057-.494.113-.878.113-1.372.057-.932-.113-1.59-.113-2.523 0-1.042.113-1.81.113-2.907V7.624c.057-.383.057-.713.057-1.096 0-1.043-.17-1.701-.17-2.743 0-1.536.17-2.414.846-3.072.282-.33.733-.603 1.41-.603.79 0 1.354.055 2.2.055 1.184 0 2.03-.11 3.215-.11 1.015 0 1.748.11 2.763.11.677 0 1.185-.055 1.861-.055h.79c.451 0 3.072-.055 3.466-.11h.17c.225 0 .507.055.733.055.394 0 .79-.055 1.128-.055 1.353 0 2.312.165 3.666.165.846 0 1.466-.11 2.312-.11 1.128 0 1.918.548 1.918 1.755 0 .713-.113 1.207-.113 1.865 0 .932.169 1.536.169 2.469 0 .767-.226.932-.564 1.426a1.301 1.301 0 01-.395.384c-.226.11-.169.11-.45.164-.622.275-1.072.275-1.298.275-.62 0-1.015-.056-1.636-.056-.959 0-1.579.056-2.538.056-1.071 0-.902-.056-1.974-.165-.676-.11-1.353-.11-1.579-.11-3.102 0-6.399.439-6.399 2.743 0 1.7-.113 2.797.79 3.4.169.11.282.22.563.275.339.055 3.862.274 4.934.274 1.127 0 1.27.055 2.173.055.79.055 1.635-.11 2.481-.11 1.129 0 1.636-.11 2.143.604.339.439.452.713.452 1.152 0 .164-.113 1.535-.113 1.7-.113.768-.113.548-.113 1.097 0 1.646.113.713-.113 2.14-.056.384-.056.493-.113.658-.394.877-1.24 1.206-2.594 1.206h-2.933c-.45 0-.789-.054-1.24-.054-.395.054-3.129.054-3.523.054l-.595-.054zM13.677 57.516c-.304-.06-.547-.122-.851-.122h-.122c-.364 0-.669.183-.972.304-.79.303-.79.545-1.095 1.212-.304.788-.425 1.03-.425 1.818 0 1.091.121 1.88.121 2.97 0 1.03-.121 1.758-.121 2.849 0 .97.121 1.697.183 2.667 0 .424 0 .788.06 1.212.06.242.122.364.182.485.183.364.548.667.912.788.183.06 1.58.181 1.824.181.243-.06 1.58-.242 1.823-.363.243-.06.426-.182.669-.303.304-.121.547-.182.85-.364.305-.242.427-.363.913-.788 1.094-.97.972-.606 1.884-2.242.972-1.697 1.277-2.182 1.52-3.88.06-.545.06-.909.06-1.151 0-1.333-.668-3.273-2.248-4.243-.73-.485-1.46-.606-1.702-.667-.244-.06-.608-.302-1.216-.302-.304 0-.547.06-.79 0-.304 0-.487-.061-.79-.061h-.67zm17.202 3.333c0 .91.121 1.576.121 2.485 0 1.576-.85 4.364-.85 4.364-.122.425-.183.667-.304 1.03-.183.304-.244.546-.426.91-.365.667-.73 1.09-1.216 1.637-.365.545-.912 1.212-1.398 1.757-.486.425-1.945 1.94-2.188 2.364-.243.424-.243.849-.243.97.06.909.79 1.394 1.094 1.637 1.155.848.79.545 2.006 1.212.121.12.608.424 1.094.606.243.121 1.033.242 1.337.424.973.545.912 1.576.912 1.758 0 .606-.122.97-.06 1.576 0 .485.06.848.06 1.333 0 .97-.182 1.697-.182 2.667 0 .485.06.848.06 1.333 0 1.212-.79 1.516-1.276 1.758-.122.06-.547.243-.851.303-.183.06-.365 0-.426 0-.242 0-.607 0-1.154-.121-1.46-.243-2.189-.728-2.857-1.152a15.862 15.862 0 01-1.398-.97c-.426-.303-.608-.606-1.034-.908-1.276-1.03-1.945-1.819-2.492-2.425-.73-.728-.73-.849-1.155-1.213-.364-.302-.669-.424-1.094-.727-1.216-.97-.669-.727-2.37-1.697-.183-.06-.487-.242-.73-.303-.304-.121-.547-.121-.669-.121-.243 0-.364-.06-.608-.06-.79 0-1.397.666-1.519.909-.243.363-.243.424-.365.787-.243.425-.182.303-.243.667-.122.364-.122 1.03-.122 1.88 0 .969.122 1.272.183 1.818.06.242.06.424.121.727.061.242.183.606.183 1.151 0 1.455-1.277 1.698-1.641 1.698-.547 0-1.216-.182-1.277-.182-.608-.122-.972-.122-1.216-.122-.911 0-1.58.122-2.492.122H2.735c-.364.06-.607.06-.972.06s-.425 0-.669-.12C.608 90.427 0 89.7 0 88.67c0-.424.061-.727.122-1.212.121-.667.121-1.273.121-1.455 0-.909-.06-1.576-.06-2.485 0-1.03.06-1.758.121-2.728.06-.666.122-1.151.122-1.818 0-1.212-.122-2-.122-3.212 0-1.212-.06-2.122-.06-3.394 0-.788.06-1.334.06-2.122 0-.97-.121-1.636-.121-2.606 0-1.697.06-2.91.121-4.607.122-1.636.243-2.788.243-4.485 0-1.152-.06-2-.06-3.212v-1.03c0-.91-.122-1.516-.122-2.425 0-1.515-.06-2.303.668-3.091.426-.485.912-.728 1.824-.728.547 0 1.033.061 1.52.061.668 0 1.094-.06 1.701-.06.973 0 1.642.06 2.614.06.73 0 1.277.06 2.006.06.79 0 1.337-.12 2.189-.12.85 0 1.519-.061 2.37-.061.73 0 1.216.06 1.885.121 2.187.06 2.309.182 3.707.546.487.121.973.242 1.459.424.486.242.79.424 1.216.606 1.155.485 1.58.606 3.343 2 .304.303.243.182.608.545.364.364.547.728 1.155 1.516.182.303.79 1.151.911 1.394.122.182 1.277 2.788 1.338 4.424v1.273zm14.061 3.675c0 1.222-.12 2.139-.24 3.423-.06 1.283 0 2.14 0 3.423 0 .734-.12 1.284-.12 2.017 0 .917.06 1.529.12 2.446.06 1.161.12 2.017.12 3.178 0 .978-.06 1.65-.06 2.629 0 .794.12 1.345.18 2.2.06.673.06 1.1.06 1.834v1.467c0 1.04-.06 1.406-.539 2.384-.3.55-.779 1.406-1.976 1.406-.719 0-1.197-.122-1.916-.122-.6 0-1.018.122-1.617.122-.659.061-1.137.061-1.796.061-.12 0-1.138.123-1.797-.611-.18-.183-.359-.55-.359-1.04 0-.427.06-.733.06-1.16.12-1.345.24-2.323.24-3.668 0-1.284-.12-2.201-.06-3.484 0-.673.12-1.223.06-1.896 0-1.039-.12-1.711-.12-2.75v-1.896c0-1.956-.12-3.361-.12-5.317 0-1.59.18-2.69.18-4.34 0-.551 0-.918-.06-1.468-.06-.489-.12-.855-.12-1.345 0-.244.06-.428.12-.672.18-.428.658-.978 1.077-1.161.3-.123 1.018-.184 1.797-.184.838 0 1.377.245 2.216.245.658 0 1.077-.061 1.736-.061h1.318c.239 0 .358 0 .478.122.42.244.958 1.04 1.138 1.406.06.183.06.428.06.489 0 .244 0 .367-.06.611v1.712zm3.305 23.095c0 .53 0 .75.892 1.233l.044.027c.123.09.793.401 1.398.6.163.029.3.044.438.058.152.017.31.034.499.067.392.033.741.066 1.09.099.346.033.693.065 1.084.098.352.002.65.057.964.115l.098.018c.217.002.388.018.554.035.164.016.318.031.514.031.165 0 .32-.015.483-.031a5.57 5.57 0 01.541-.035c.576-.051 1.08-.053 1.568-.055.751-.003 1.461-.006 2.286-.2 1.45-.302 4.331-1.89 4.653-2.07a7.58 7.58 0 00.79-.736l.029-.028c1.315-1.165 1.673-1.617 2.63-3.044l.271-.365c.428-.574.428-.574.657-1.12l.008-.02c.032-.105.06-.205.087-.304a5.241 5.241 0 01.463-1.198c.12-.233.223-.435.298-.72.278-.855.416-2.13.416-3.812 0-3.846-.58-5.541-1.722-7.494a13.17 13.17 0 00-.724-1.242s-.227-.304-.39-.48a7.958 7.958 0 00-.703-.7l-.033-.031c-.13-.14-.237-.265-.34-.385-.19-.22-.353-.409-.619-.655l-.022-.022a5.384 5.384 0 00-.308-.28c-.292-.255-.692-.604-1.102-1.049l-.035-.044-.081-.116c-.321-.405-.305-.402-.573-.6-.052-.027-.253-.229-.309-.265-.162-.104-.258-.213-.473-.387-.22-.19-1.301-1.2-1.54-1.393a8.29 8.29 0 01-.663-.513 7.472 7.472 0 00-.61-.473l-.038-.03c-.097-.083-.22-.18-.35-.285-.286-.228-.61-.486-.836-.729-.47-.434-1.47-1.85-1.47-3.347 0-.2.025-1.231.507-1.902.536-.831 1.964-1.369 2.35-1.477.35-.124.552-.104.7-.09.03.002.06.006.091.006.342 0 3.503.325 3.925.403.271.034.505.106.73.176.264.081.492.151.743.151.44 0 1.516-.228 1.853-.906l.018-.032c.127-.207.184-.607.184-.912 0-.347-.014-.647-.03-.964a21.959 21.959 0 01-.031-1.094v-1.196c0-.219-.015-.438-.03-.67a10.632 10.632 0 01-.032-.725c0-.264.034-.482.066-.694.03-.188.057-.367.057-.567 0-.248-.072-.725-.34-.942-.392-.32-1.548-.782-4.828-1.177l-.056-.01c-.179-.05-1.088-.12-2.106-.12h-.306c-.749 0-3.84.268-4.531.392-1.239.283-2.386.8-2.604.9a4.657 4.657 0 01-.193.084c-.456.192-1.668.702-2.492 1.332-1.346 1.053-2.346 2.51-2.969 4.326l-.022.066c-.597 1.616-.713 2.17-.713 4.91 0 .588 0 .976.059 1.553.083.722.26 1.393.376 1.837.05.196.09.35.11.453l.088.348c.433 1.723.433 1.723 1.115 2.974l.074.152c.042.138.437.948 1.086 1.714.353.42.662.726.99 1.049.221.22.45.446.7.716.162.141.29.28.413.413.119.128.23.25.368.368l.032.031c.258.28.457.46.71.69.094.085.196.178.31.284.296.24.534.489.786.753.153.161.312.328.494.501.234.188.45.31.702.45.23.128.468.26.74.457.283.218.635.59.918.887l.224.234h.015l.115.112c.26.253.483.458.679.638.746.684 1.158 1.06 1.626 2.3.333.867.333 1.33.333 1.74 0 1.258-.346 2.238-1.028 2.913-1.108 1.097-2.735 1.04-3.347 1.019l-.132-.004h-1.534c-.67 0-1.075-.167-1.544-.362-.144-.06-.298-.123-.474-.187-.765-.205-1.509-.314-2.152-.314h-.84c-.777.07-1.266.147-1.512.59l-.058.105-.054.029a.976.976 0 00-.081.396c0 .114 0 .16.054.456l.005.037c.016.178.028.293.037.377.026.249.026.264.026.657 0 .599-.048 1.06-.1 1.548-.03.287-.061.584-.084.923 0 .342.015.637.03.95.015.333.032.678.032 1.095 0 .303-.016.576-.03.84a15.2 15.2 0 00-.032.887m24.408 2.061s.304.536.35.58c.353.403.988.618 1.8.618h1.101c.18-.04.33-.028.49-.014.083.006.174.014.28.014a23.3 23.3 0 001.084-.03c.339-.015 1.58-.015 1.799 0 .22.015.43.03.673.03h2.12l.265.023c.582.053 1.084.099 1.732.099.267 0 .505-.014.756-.029.265-.016.54-.032.866-.032l.771-.033a71.172 71.172 0 013.346-.089c.529 0 .99.03 1.435.06.46.03.934.062 1.496.062.243 0 .452-.014.673-.03.218-.015.444-.031.7-.031l.333-.04a8.926 8.926 0 011.101-.082c.454 0 .824.032 1.183.064.346.03.674.058 1.063.058 1.7 0 1.93-.921 1.93-1.823 0-.484 0-1.147-.06-1.623-.04-.328-.08-.546-.115-.739-.076-.42-.137-.752-.137-1.848 0-.593-.204-1.722-.643-2.259l-.022-.034c-.042-.081-.2-.243-.371-.354-.175-.114-1.079-.457-1.767-.457-.3 0-.537.029-.787.06-.251.03-.511.062-.835.062-.55.061-.996.061-1.56.061-.274 0-.498.015-.736.03-.233.015-.474.031-.76.031-.278 0-.564-.014-.867-.03a27.06 27.06 0 00-2.246 0c-.43.015-.876.03-1.316.03-1.182 0-2.283-.11-3.102-.31-.674-.165-1.928-.472-2.203-2.354l-.001-.028-.007-.218a92.798 92.798 0 01-.056-2.467c0-1.02.115-2.135.963-2.663.41-.267 1.323-.456 1.661-.456h.749l.4-.038c.462-.045.863-.084 1.408-.084.297 0 .59.048.874.094.28.046.546.089.81.089.424 0 .861 0 1.284-.06a8.98 8.98 0 01.726.03c.221.015.43.03.673.03h3.244c1.504 0 2.31-.368 2.695-1.23.032-.095.043-.183.068-.374.01-.083.024-.182.042-.307l.078-.488c.082-.511.082-.511.07-.75a18.91 18.91 0 01-.025-1.114c0-.444 0-.452.048-.743.017-.108.042-.257.077-.493.002-.11.025-.434.062-.944.03-.397.062-.848.062-.932 0-.44-.103-.7-.46-1.166-.437-.617-.83-.612-1.778-.6-.137.002-.283.004-.44.004-.398 0-.804.034-1.197.068-.517.044-1.052.09-1.561.054h-.006c-.497 0-.93-.063-1.35-.124-.426-.062-.828-.12-1.313-.12-.616 0-1.134.046-1.636.09a17.65 17.65 0 01-1.67.093c-1.087 0-2.265-.2-2.768-.285l-.133-.023a1.41 1.41 0 01-.602-.269 3.726 3.726 0 00-.095-.064c-.982-.66-.974-1.8-.962-3.377l.002-.566c0-2.752 1.227-3.241 4.683-3.241.25 0 1.013 0 1.777.124.4.041.647.076.843.104.363.051.545.077 1.31.077a37.9 37.9 0 001.396-.03 36.25 36.25 0 011.41-.031c.349 0 .637.016.915.03.274.016.557.031.895.031.247 0 .707 0 1.357-.289l.04-.013c.21-.04.219-.046.31-.094l.142-.073c.145-.096.253-.201.363-.363.06-.089.118-.169.172-.243.27-.374.418-.58.418-1.236 0-.508-.047-.937-.092-1.352a12.145 12.145 0 01-.095-1.393c0-.368.032-.696.062-1.013a10.7 10.7 0 00.063-1.062c0-1.533-1.209-1.762-1.93-1.762-.46 0-.869.031-1.264.06-.402.031-.818.062-1.293.062-.756 0-1.41-.047-2.041-.092A26.955 26.955 0 0089.836 48c-.173 0-.362.014-.562.028-.35.026-.721.044-1.111.001-.133-.014-.27-.029-.385-.029h-.188l-.184.029a6.58 6.58 0 01-1.063.093h-.873c-.37 0-.7.016-1.02.03-.325.016-.66.031-1.039.031-.567 0-1.062-.03-1.54-.061-.473-.03-.961-.06-1.516-.06-.65 0-1.218.03-1.768.06a31.7 31.7 0 01-1.788.061c-.48 0-.88-.016-1.267-.031-.38-.016-.74-.03-1.166-.03-.743 0-1.179.329-1.414.604-.668.655-.89 1.483-.89 3.293 0 .57.047 1.047.093 1.507.047.47.095.955.095 1.544 0 .429 0 .8-.063 1.234v1.451c0 .624-.033 1.156-.064 1.67-.031.513-.06.997-.06 1.563 0 .444.035.838.07 1.218.044.493.09 1.002.054 1.6 0 .465-.045.848-.097 1.291l-.029.245c-.061.539-.061.964-.061 1.504v2.502c0 .576.016 1.087.031 1.58.015.497.031 1.01.031 1.592v.61c0 .382.03.716.06 1.07.032.366.065.745.065 1.188 0 .287-.032.54-.064.787-.031.244-.06.476-.06.739v4.758c0 .206.014.38.03.564.016.184.032.374.032.596.04.352.028.643.014.952-.007.16-.011.366-.011.553 0 0 .042.534.069.77.056.502.032 1.038.032 1.586-.066.526-.042 1.039-.042 1.508 0 .735.22 1.12.466 1.48M45 51.065c-.01.282-.017.547-.076.823-.063.294-.177.525-.285.805-.087.226-.119.469-.236.68a5.48 5.48 0 01-.533.746c-.336.418-.732.77-1.069 1.183a2.644 2.644 0 01-.602.553c-.212.138-1.106.661-1.45.783-.222.078-.432.208-.66.255a4.711 4.711 0 01-1.651.06 3.408 3.408 0 01-.898-.257c-.223-.098-.502-.162-.7-.298-.234-.161-.424-.415-.656-.59-.207-.156-.462-.33-.62-.536-.154-.201-.242-.475-.379-.693-.162-.258-.37-.49-.526-.749-.28-.468-.396-1.08-.505-1.611-.115-.556-.203-1.143-.124-1.708.04-.28.116-.562.18-.839.069-.299.213-.49.346-.766.14-.294.203-.517.418-.763.179-.204.32-.454.508-.644.386-.39.937-.69 1.41-.957.309-.176 1.378-.486 1.642-.519a3.97 3.97 0 01.918.008c.244.028 1.243.21 1.549.352.245.114.495.224.735.351.247.132.475.282.732.394.287.127.459.277.698.485.779.675 1.59 1.575 1.745 2.631.04.273.064.546.089.82" fill="#FCFAF2" fill-rule="evenodd"/></svg>