<svg width="21" height="21" xmlns="http://www.w3.org/2000/svg"><path d="M10.5 0c2.852 0 3.21.012 4.33.063 1.117.051 1.88.229 2.548.488.69.269 1.276.628 1.86 1.211.583.584.942 1.17 1.21 1.86.26.668.438 1.431.489 2.55C20.988 7.29 21 7.648 21 10.5s-.012 3.21-.063 4.329c-.05 1.118-.229 1.881-.488 2.549a5.153 5.153 0 01-1.211 1.86 5.148 5.148 0 01-1.86 1.21c-.668.26-1.431.438-2.549.489-1.12.051-1.477.063-4.329.063-2.851 0-3.209-.012-4.33-.063-1.116-.051-1.88-.229-2.548-.488a5.144 5.144 0 01-1.86-1.211 5.144 5.144 0 01-1.21-1.86c-.26-.668-.438-1.431-.489-2.55C.012 13.71 0 13.352 0 10.5s.012-3.21.063-4.329c.051-1.118.229-1.881.488-2.55a5.142 5.142 0 011.211-1.859 5.144 5.144 0 011.86-1.21C4.29.291 5.054.113 6.171.062 7.29.012 7.649 0 10.5 0zm0 1.892c-2.804 0-3.135.01-4.243.061-1.023.047-1.58.218-1.95.362-.49.19-.84.418-1.207.785a3.246 3.246 0 00-.785 1.208c-.144.37-.315.925-.362 1.95-.05 1.107-.061 1.438-.061 4.242 0 2.803.01 3.135.061 4.243.047 1.024.218 1.58.362 1.95.19.49.418.84.785 1.207.367.367.717.594 1.208.785.37.144.926.315 1.95.362 1.106.05 1.438.061 4.242.061 2.804 0 3.136-.01 4.243-.061 1.024-.047 1.58-.218 1.95-.362.49-.19.84-.418 1.207-.785.367-.368.595-.717.785-1.208.144-.37.315-.925.362-1.95.05-1.107.061-1.439.061-4.242 0-2.804-.01-3.135-.061-4.243-.047-1.024-.218-1.58-.362-1.95-.19-.49-.418-.84-.785-1.207a3.247 3.247 0 00-1.207-.785c-.37-.144-.926-.315-1.95-.362-1.107-.05-1.44-.061-4.243-.061zm0 12.178a3.57 3.57 0 100-7.14 3.57 3.57 0 000 7.14zm0-9.07a5.5 5.5 0 110 11 5.5 5.5 0 010-11zM17 5c0 .552-.672 1-1.5 1-.829 0-1.5-.448-1.5-1s.671-1 1.5-1c.828 0 1.5.448 1.5 1z" fill="#2B3648" fill-rule="evenodd"/></svg>